# xmcd
#
# Track frame offsets: 
#        150
#        7506
#        18215
#        28152
#        37613
#        47771
#        57554
#        68941
#        78461
#        87501
#        99784
#        110101
#
# Disc length: 1580 seconds
#
# Revision: 2
# Processed by: cddbd v1.5.2PL0 Copyright (c) Steve Scherf et al.
# Submitted via: ExactAudioCopy v1.0b4
#
DISCID=89062a0c
DTITLE=Roy Wiggins - Mister Steel Guitar
DYEAR=2011
DGENRE=Country
TTITLE0=Rise And Shine
TTITLE1=Tennessee Plowboy
TTITLE2=Ting-A-Ling
TTITLE3=Weasel
TTITLE4=Starburst
TTITLE5=Wiggins' Wiggle
TTITLE6=Thru The Night
TTITLE7=Annette
TTITLE8=Flapjack
TTITLE9=Love Theme
TTITLE10=Red River Valley
TTITLE11=Maiden's Prayer
EXTD=
EXTT0=
EXTT1=
EXTT2=
EXTT3=
EXTT4=
EXTT5=
EXTT6=
EXTT7=
EXTT8=
EXTT9=
EXTT10=
EXTT11=
PLAYORDER=
